<?xml version="1.0" encoding="UTF-8" standalone="no"?>
<!-- Created with Inkscape (http://www.inkscape.org/) -->

<svg
   xmlns:dc="http://purl.org/dc/elements/1.1/"
   xmlns:cc="http://creativecommons.org/ns#"
   xmlns:rdf="http://www.w3.org/1999/02/22-rdf-syntax-ns#"
   xmlns:svg="http://www.w3.org/2000/svg"
   xmlns="http://www.w3.org/2000/svg"
   xmlns:sodipodi="http://sodipodi.sourceforge.net/DTD/sodipodi-0.dtd"
   xmlns:inkscape="http://www.inkscape.org/namespaces/inkscape"
   width="83mm"
   height="83mm"
   viewBox="0 0 83 83"
   version="1.1"
   id="svg5696"
   inkscape:version="0.92.0 r15299"
   sodipodi:docname="CoffeePotWhite.svg">
  <defs
     id="defs5690" />
  <sodipodi:namedview
     id="base"
     pagecolor="#ffffff"
     bordercolor="#666666"
     borderopacity="1.0"
     inkscape:pageopacity="0.0"
     inkscape:pageshadow="2"
     inkscape:zoom="2.8"
     inkscape:cx="14.320339"
     inkscape:cy="83.147923"
     inkscape:document-units="mm"
     inkscape:current-layer="layer1"
     showgrid="false"
     fit-margin-top="0"
     fit-margin-left="0"
     fit-margin-right="0"
     fit-margin-bottom="0"
     inkscape:window-width="3000"
     inkscape:window-height="1890"
     inkscape:window-x="3348"
     inkscape:window-y="-12"
     inkscape:window-maximized="1" />
  <metadata
     id="metadata5693">
    <rdf:RDF>
      <cc:Work
         rdf:about="">
        <dc:format>image/svg+xml</dc:format>
        <dc:type
           rdf:resource="http://purl.org/dc/dcmitype/StillImage" />
        <dc:title></dc:title>
      </cc:Work>
    </rdf:RDF>
  </metadata>
  <g
     inkscape:label="Layer 1"
     inkscape:groupmode="layer"
     id="layer1"
     transform="translate(-59.878498,-42.63438)">
    <path
       style="opacity:1;fill:#ffffff;fill-opacity:1;stroke:none;stroke-width:136.77780151;stroke-miterlimit:4;stroke-dasharray:none;stroke-opacity:1"
       d="m 77.427942,46.122931 c -0.375012,0.01863 -0.516764,0.181389 -0.516764,0.519348 0,0.143645 0.748761,2.858805 1.663981,6.033223 0.91522,3.174419 1.723373,6.042386 1.796273,6.373255 0.07297,0.330868 0.145847,1.894941 0.161747,3.475756 l 0.02894,2.874243 -0.321428,0.15813 c -1.49797,0.737119 -3.799843,2.065857 -4.921663,2.84117 -7.817826,5.403032 -12.902212,13.919398 -13.852384,23.202717 -0.916659,8.955907 1.53779,17.364967 7.062101,24.196967 1.67139,2.06703 4.720391,4.92615 6.369637,5.97277 l 0.594279,0.37723 h 18.172016 18.172533 l 0.81804,-0.55655 c 2.10237,-1.42966 5.03707,-4.29384 6.80785,-6.64456 3.48559,-4.62716 5.52125,-9.62772 6.40271,-15.726166 0.25653,-1.775011 0.21473,-6.566202 -0.0744,-8.535914 -1.33734,-9.110268 -6.2873,-17.094115 -13.85497,-22.345921 -1.17599,-0.816114 -3.28843,-2.031115 -4.51187,-2.595191 l -0.70228,-0.323494 v -0.984436 c 0,-0.666095 0.0543,-1.003294 0.16743,-1.043864 0.27736,-0.09947 14.67317,-1.802991 15.23628,-1.802991 0.66761,0 0.96621,0.163816 1.14928,0.629936 0.0805,0.205008 1.59692,7.045014 3.36931,15.200105 1.77238,8.155101 3.33337,15.042891 3.46903,15.306558 0.13567,0.263671 0.41739,0.635538 0.62632,0.826307 0.63697,0.58157 6.62059,4.565261 7.05952,4.699971 0.58483,0.179491 1.05682,-0.05834 2.40399,-1.210778 1.14378,-0.978442 1.44454,-1.45425 1.19062,-1.88464 -0.0692,-0.11729 -1.36832,-1.145987 -2.88664,-2.285648 -3.15346,-2.367 -3.46469,-2.641563 -3.7605,-3.318142 -0.1182,-0.270341 -1.45096,-8.181983 -2.96157,-17.581356 -1.76895,-11.006851 -2.81933,-17.20046 -2.95073,-17.401006 -0.11221,-0.171257 -0.30568,-0.36191 -0.42995,-0.42323 -0.12425,-0.06132 -5.03413,-0.141524 -10.91096,-0.178284 l -10.68513,-0.06666 -0.10232,-0.381889 c -0.12402,-0.463817 -0.48007,-0.878757 -0.88884,-1.035079 -0.32827,-0.125534 -26.119961,-5.992425 -27.595221,-6.277138 -0.245523,-0.04738 -0.45011,-0.07585 -0.619084,-0.08423 -0.06337,-0.0031 -0.12161,-0.0032 -0.175183,-5.16e-4 z M 93.636254,66.61677 c 1.523392,4.16e-4 3.053258,0.05588 3.862298,0.166915 5.268128,0.723042 10.300568,2.792918 14.304038,5.882844 1.46159,1.128072 3.84762,3.512169 4.96817,4.964038 1.75112,2.26886 3.20667,5.009343 4.15375,7.820713 0.42129,1.250579 1.0508,4.069294 0.94775,4.244184 -0.0325,0.05516 -12.74903,0.100253 -28.258744,0.100253 -22.470463,0 -28.199329,-0.03376 -28.199311,-0.166915 5.1e-5,-0.369919 0.419546,-2.324661 0.719336,-3.35225 2.015779,-6.909501 6.938027,-12.807756 13.632243,-16.33492 2.99294,-1.576972 6.383799,-2.643522 10.045897,-3.160014 0.784236,-0.110603 2.301182,-0.165272 3.824573,-0.164848 z"
       id="path4490"
       inkscape:connector-curvature="0" />
    <rect
       style="opacity:1;fill:none;fill-opacity:1;stroke:none;stroke-width:130.45010376;stroke-miterlimit:4;stroke-dasharray:none;stroke-opacity:1"
       id="rect4483"
       width="83"
       height="83"
       x="59.878498"
       y="42.63438" />
  </g>
</svg>
